<?xml version="1.0" ?>
<!-- Uploaded to: SVG Repo, www.svgrepo.com, Generator: SVG Repo Mixer Tools -->
<svg width="800px" height="800px" viewBox="0 0 512 512" id="Layer_1" version="1.1" xml:space="preserve" xmlns="http://www.w3.org/2000/svg" xmlns:xlink="http://www.w3.org/1999/xlink">
<style type="text/css">
	.st0{fill:#2B79C2;}
	.st1{fill:#3B4652;}
</style>
<g>
<path class="st1" d="M161.2,471.9c0,13.8,11.1,24.9,24.9,24.9h139.8c13.8,0,24.9-11.2,24.9-24.9v-16.3H161.2V471.9z"/>
<polygon class="st1" points="256,355.3 178.7,260.1 161.2,260.1 161.2,441.6 350.8,441.6 350.8,260.1 333.3,260.1  "/>
<path class="st0" d="M164.3,220.1l32.4,40l59.2,73l59.2-73l32.4-40c0.3-0.3,0.5-0.6,0.8-0.9c19-21.6,30.5-50,30.5-81.1   c0-67.9-55-123-122.9-123s-122.9,55.1-122.9,123c0,31.1,11.5,59.4,30.5,81.1C163.8,219.5,164.1,219.8,164.3,220.1z M256,86   c28.8,0,52.1,23.3,52.1,52.1c0,28.8-23.3,52.1-52.1,52.1s-52.1-23.3-52.1-52.1C203.9,109.4,227.2,86,256,86z"/>
</g>
</svg>